<svg width="1440" height="790" viewBox="0 0 1440 790" fill="none" xmlns="http://www.w3.org/2000/svg">
<g clip-path="url(#clip0_9403_66603)">
<g filter="url(#filter0_f_9403_66603)">
<ellipse cx="241.059" cy="235.477" rx="241.059" ry="235.477" transform="matrix(-0.999999 0.00143363 0.00143363 0.999999 402.117 -54)" fill="url(#paint0_radial_9403_66603)"/>
</g>
<g filter="url(#filter1_i_9403_66603)">
<rect width="148" height="183" rx="28" transform="matrix(-1 0 0 1 1467 -27)" fill="white"/>
</g>
<rect x="-0.5" y="0.5" width="147" height="182" rx="27.5" transform="matrix(-1 0 0 1 1466 -27)" stroke="#F9F9F9"/>
<g filter="url(#filter2_i_9403_66603)">
<rect width="1196" height="183" rx="28" transform="matrix(-1 0 0 1 1317 -27)" fill="white"/>
</g>
<rect x="-0.5" y="0.5" width="1195" height="182" rx="27.5" transform="matrix(-1 0 0 1 1316 -27)" stroke="#F9F9F9"/>
<g filter="url(#filter3_i_9403_66603)">
<rect width="148" height="183" rx="28" transform="matrix(-1 0 0 1 119 -27)" fill="white"/>
</g>
<rect x="-0.5" y="0.5" width="147" height="182" rx="27.5" transform="matrix(-1 0 0 1 118 -27)" stroke="#F9F9F9"/>
<g filter="url(#filter4_i_9403_66603)">
<rect x="-41" y="158" width="160" height="584" rx="28" fill="white"/>
</g>
<rect x="-40.5" y="158.5" width="159" height="583" rx="27.5" stroke="#F9F9F9"/>
<g filter="url(#filter5_i_9403_66603)">
<rect x="121" y="158" width="265" height="584" rx="28" fill="white"/>
</g>
<rect x="121.5" y="158.5" width="264" height="583" rx="27.5" stroke="#F9F9F9"/>
<g filter="url(#filter6_i_9403_66603)">
<rect x="388" y="158" width="682" height="584" rx="28" fill="white"/>
</g>
<rect x="388.5" y="158.5" width="681" height="583" rx="27.5" stroke="#F9F9F9"/>
<g filter="url(#filter7_i_9403_66603)">
<rect x="1072" y="158" width="245" height="584" rx="28" fill="white"/>
</g>
<rect x="1072.5" y="158.5" width="244" height="583" rx="27.5" stroke="#F9F9F9"/>
<g filter="url(#filter8_i_9403_66603)">
<rect x="1319" y="158" width="148" height="585" rx="28" fill="white"/>
</g>
<rect x="1319.5" y="158.5" width="147" height="584" rx="27.5" stroke="#F9F9F9"/>
<g filter="url(#filter9_i_9403_66603)">
<rect width="148" height="75" rx="28" transform="matrix(-1 0 0 1 1467 745)" fill="white"/>
</g>
<rect x="-0.5" y="0.5" width="147" height="74" rx="27.5" transform="matrix(-1 0 0 1 1466 745)" stroke="#F9F9F9"/>
<g filter="url(#filter10_i_9403_66603)">
<rect width="1196" height="75" rx="28" transform="matrix(-1 0 0 1 1317 745)" fill="white"/>
</g>
<rect x="-0.5" y="0.5" width="1195" height="74" rx="27.5" transform="matrix(-1 0 0 1 1316 745)" stroke="#F9F9F9"/>
<g filter="url(#filter11_i_9403_66603)">
<rect width="148" height="75" rx="28" transform="matrix(-1 0 0 1 119 745)" fill="white"/>
</g>
<rect x="-0.5" y="0.5" width="147" height="74" rx="27.5" transform="matrix(-1 0 0 1 118 745)" stroke="#F9F9F9"/>
<g filter="url(#filter12_i_9403_66603)">
<path d="M756.5 200C757.328 200 758 200.672 758 201.5C758 202.328 757.328 203 756.5 203L683.5 203C682.672 203 682 202.328 682 201.5C682 200.672 682.672 200 683.5 200L756.5 200Z" fill="#F9F9F9"/>
<path d="M721.963 700.17C721.964 700.999 721.292 701.672 720.463 701.672C719.635 701.672 718.964 701.001 718.963 700.173L718.501 201.501C718.501 200.672 719.172 200 720.001 200C720.829 200 721.501 200.671 721.501 201.499L721.963 700.17Z" fill="#F9F9F9"/>
<path d="M683.5 703C682.672 703 682 702.328 682 701.5C682 700.672 682.672 700 683.5 700H756.5C757.328 700 758 700.672 758 701.5C758 702.328 757.328 703 756.5 703H683.5Z" fill="#F9F9F9"/>
<path d="M718.5 628.5C718.5 627.672 719.172 627 720 627C720.828 627 721.5 627.672 721.5 628.5V701.5C721.5 702.328 720.828 703 720 703C719.172 703 718.5 702.328 718.5 701.5V628.5Z" fill="#F9F9F9"/>
<path d="M162.5 413C161.672 413 161 413.672 161 414.5V487.5C161 488.328 161.672 489 162.5 489C163.328 489 164 488.328 164 487.5V452.5L1232.94 452.688C1233.2 452.688 1233.45 452.619 1233.66 452.5H1263V487.5C1263 488.328 1263.67 489 1264.5 489C1265.33 489 1266 488.328 1266 487.5V414.5C1266 413.672 1265.33 413 1264.5 413C1263.67 413 1263 413.672 1263 414.5V449.5H1191.5C1191.24 449.5 1191 449.565 1190.79 449.68L164 449.5V414.5C164 413.672 163.328 413 162.5 413Z" fill="#F9F9F9"/>
</g>
</g>
<defs>
<filter id="filter0_f_9403_66603" x="-307.663" y="-281.655" width="938.118" height="926.953" filterUnits="userSpaceOnUse" color-interpolation-filters="sRGB">
<feFlood flood-opacity="0" result="BackgroundImageFix"/>
<feBlend mode="normal" in="SourceGraphic" in2="BackgroundImageFix" result="shape"/>
<feGaussianBlur stdDeviation="114" result="effect1_foregroundBlur_9403_66603"/>
</filter>
<filter id="filter1_i_9403_66603" x="1319" y="-27" width="148" height="183" filterUnits="userSpaceOnUse" color-interpolation-filters="sRGB">
<feFlood flood-opacity="0" result="BackgroundImageFix"/>
<feBlend mode="normal" in="SourceGraphic" in2="BackgroundImageFix" result="shape"/>
<feColorMatrix in="SourceAlpha" type="matrix" values="0 0 0 0 0 0 0 0 0 0 0 0 0 0 0 0 0 0 127 0" result="hardAlpha"/>
<feMorphology radius="1" operator="erode" in="SourceAlpha" result="effect1_innerShadow_9403_66603"/>
<feOffset/>
<feComposite in2="hardAlpha" operator="arithmetic" k2="-1" k3="1"/>
<feColorMatrix type="matrix" values="0 0 0 0 1 0 0 0 0 1 0 0 0 0 1 0 0 0 0.1 0"/>
<feBlend mode="normal" in2="shape" result="effect1_innerShadow_9403_66603"/>
</filter>
<filter id="filter2_i_9403_66603" x="121" y="-27" width="1196" height="183" filterUnits="userSpaceOnUse" color-interpolation-filters="sRGB">
<feFlood flood-opacity="0" result="BackgroundImageFix"/>
<feBlend mode="normal" in="SourceGraphic" in2="BackgroundImageFix" result="shape"/>
<feColorMatrix in="SourceAlpha" type="matrix" values="0 0 0 0 0 0 0 0 0 0 0 0 0 0 0 0 0 0 127 0" result="hardAlpha"/>
<feMorphology radius="1" operator="erode" in="SourceAlpha" result="effect1_innerShadow_9403_66603"/>
<feOffset/>
<feComposite in2="hardAlpha" operator="arithmetic" k2="-1" k3="1"/>
<feColorMatrix type="matrix" values="0 0 0 0 1 0 0 0 0 1 0 0 0 0 1 0 0 0 0.1 0"/>
<feBlend mode="normal" in2="shape" result="effect1_innerShadow_9403_66603"/>
</filter>
<filter id="filter3_i_9403_66603" x="-29" y="-27" width="148" height="183" filterUnits="userSpaceOnUse" color-interpolation-filters="sRGB">
<feFlood flood-opacity="0" result="BackgroundImageFix"/>
<feBlend mode="normal" in="SourceGraphic" in2="BackgroundImageFix" result="shape"/>
<feColorMatrix in="SourceAlpha" type="matrix" values="0 0 0 0 0 0 0 0 0 0 0 0 0 0 0 0 0 0 127 0" result="hardAlpha"/>
<feMorphology radius="1" operator="erode" in="SourceAlpha" result="effect1_innerShadow_9403_66603"/>
<feOffset/>
<feComposite in2="hardAlpha" operator="arithmetic" k2="-1" k3="1"/>
<feColorMatrix type="matrix" values="0 0 0 0 1 0 0 0 0 1 0 0 0 0 1 0 0 0 0.1 0"/>
<feBlend mode="normal" in2="shape" result="effect1_innerShadow_9403_66603"/>
</filter>
<filter id="filter4_i_9403_66603" x="-41" y="158" width="160" height="584" filterUnits="userSpaceOnUse" color-interpolation-filters="sRGB">
<feFlood flood-opacity="0" result="BackgroundImageFix"/>
<feBlend mode="normal" in="SourceGraphic" in2="BackgroundImageFix" result="shape"/>
<feColorMatrix in="SourceAlpha" type="matrix" values="0 0 0 0 0 0 0 0 0 0 0 0 0 0 0 0 0 0 127 0" result="hardAlpha"/>
<feMorphology radius="1" operator="erode" in="SourceAlpha" result="effect1_innerShadow_9403_66603"/>
<feOffset/>
<feComposite in2="hardAlpha" operator="arithmetic" k2="-1" k3="1"/>
<feColorMatrix type="matrix" values="0 0 0 0 1 0 0 0 0 1 0 0 0 0 1 0 0 0 0.1 0"/>
<feBlend mode="normal" in2="shape" result="effect1_innerShadow_9403_66603"/>
</filter>
<filter id="filter5_i_9403_66603" x="121" y="158" width="265" height="584" filterUnits="userSpaceOnUse" color-interpolation-filters="sRGB">
<feFlood flood-opacity="0" result="BackgroundImageFix"/>
<feBlend mode="normal" in="SourceGraphic" in2="BackgroundImageFix" result="shape"/>
<feColorMatrix in="SourceAlpha" type="matrix" values="0 0 0 0 0 0 0 0 0 0 0 0 0 0 0 0 0 0 127 0" result="hardAlpha"/>
<feMorphology radius="1" operator="erode" in="SourceAlpha" result="effect1_innerShadow_9403_66603"/>
<feOffset/>
<feComposite in2="hardAlpha" operator="arithmetic" k2="-1" k3="1"/>
<feColorMatrix type="matrix" values="0 0 0 0 1 0 0 0 0 1 0 0 0 0 1 0 0 0 0.1 0"/>
<feBlend mode="normal" in2="shape" result="effect1_innerShadow_9403_66603"/>
</filter>
<filter id="filter6_i_9403_66603" x="388" y="158" width="682" height="584" filterUnits="userSpaceOnUse" color-interpolation-filters="sRGB">
<feFlood flood-opacity="0" result="BackgroundImageFix"/>
<feBlend mode="normal" in="SourceGraphic" in2="BackgroundImageFix" result="shape"/>
<feColorMatrix in="SourceAlpha" type="matrix" values="0 0 0 0 0 0 0 0 0 0 0 0 0 0 0 0 0 0 127 0" result="hardAlpha"/>
<feMorphology radius="1" operator="erode" in="SourceAlpha" result="effect1_innerShadow_9403_66603"/>
<feOffset/>
<feComposite in2="hardAlpha" operator="arithmetic" k2="-1" k3="1"/>
<feColorMatrix type="matrix" values="0 0 0 0 1 0 0 0 0 1 0 0 0 0 1 0 0 0 0.1 0"/>
<feBlend mode="normal" in2="shape" result="effect1_innerShadow_9403_66603"/>
</filter>
<filter id="filter7_i_9403_66603" x="1072" y="158" width="245" height="584" filterUnits="userSpaceOnUse" color-interpolation-filters="sRGB">
<feFlood flood-opacity="0" result="BackgroundImageFix"/>
<feBlend mode="normal" in="SourceGraphic" in2="BackgroundImageFix" result="shape"/>
<feColorMatrix in="SourceAlpha" type="matrix" values="0 0 0 0 0 0 0 0 0 0 0 0 0 0 0 0 0 0 127 0" result="hardAlpha"/>
<feMorphology radius="3" operator="erode" in="SourceAlpha" result="effect1_innerShadow_9403_66603"/>
<feOffset/>
<feComposite in2="hardAlpha" operator="arithmetic" k2="-1" k3="1"/>
<feColorMatrix type="matrix" values="0 0 0 0 1 0 0 0 0 1 0 0 0 0 1 0 0 0 0.68 0"/>
<feBlend mode="normal" in2="shape" result="effect1_innerShadow_9403_66603"/>
</filter>
<filter id="filter8_i_9403_66603" x="1319" y="158" width="148" height="585" filterUnits="userSpaceOnUse" color-interpolation-filters="sRGB">
<feFlood flood-opacity="0" result="BackgroundImageFix"/>
<feBlend mode="normal" in="SourceGraphic" in2="BackgroundImageFix" result="shape"/>
<feColorMatrix in="SourceAlpha" type="matrix" values="0 0 0 0 0 0 0 0 0 0 0 0 0 0 0 0 0 0 127 0" result="hardAlpha"/>
<feMorphology radius="1" operator="erode" in="SourceAlpha" result="effect1_innerShadow_9403_66603"/>
<feOffset/>
<feComposite in2="hardAlpha" operator="arithmetic" k2="-1" k3="1"/>
<feColorMatrix type="matrix" values="0 0 0 0 1 0 0 0 0 1 0 0 0 0 1 0 0 0 0.1 0"/>
<feBlend mode="normal" in2="shape" result="effect1_innerShadow_9403_66603"/>
</filter>
<filter id="filter9_i_9403_66603" x="1319" y="745" width="148" height="75" filterUnits="userSpaceOnUse" color-interpolation-filters="sRGB">
<feFlood flood-opacity="0" result="BackgroundImageFix"/>
<feBlend mode="normal" in="SourceGraphic" in2="BackgroundImageFix" result="shape"/>
<feColorMatrix in="SourceAlpha" type="matrix" values="0 0 0 0 0 0 0 0 0 0 0 0 0 0 0 0 0 0 127 0" result="hardAlpha"/>
<feMorphology radius="1" operator="erode" in="SourceAlpha" result="effect1_innerShadow_9403_66603"/>
<feOffset/>
<feComposite in2="hardAlpha" operator="arithmetic" k2="-1" k3="1"/>
<feColorMatrix type="matrix" values="0 0 0 0 1 0 0 0 0 1 0 0 0 0 1 0 0 0 0.1 0"/>
<feBlend mode="normal" in2="shape" result="effect1_innerShadow_9403_66603"/>
</filter>
<filter id="filter10_i_9403_66603" x="121" y="745" width="1196" height="75" filterUnits="userSpaceOnUse" color-interpolation-filters="sRGB">
<feFlood flood-opacity="0" result="BackgroundImageFix"/>
<feBlend mode="normal" in="SourceGraphic" in2="BackgroundImageFix" result="shape"/>
<feColorMatrix in="SourceAlpha" type="matrix" values="0 0 0 0 0 0 0 0 0 0 0 0 0 0 0 0 0 0 127 0" result="hardAlpha"/>
<feMorphology radius="1" operator="erode" in="SourceAlpha" result="effect1_innerShadow_9403_66603"/>
<feOffset/>
<feComposite in2="hardAlpha" operator="arithmetic" k2="-1" k3="1"/>
<feColorMatrix type="matrix" values="0 0 0 0 1 0 0 0 0 1 0 0 0 0 1 0 0 0 0.1 0"/>
<feBlend mode="normal" in2="shape" result="effect1_innerShadow_9403_66603"/>
</filter>
<filter id="filter11_i_9403_66603" x="-29" y="745" width="148" height="75" filterUnits="userSpaceOnUse" color-interpolation-filters="sRGB">
<feFlood flood-opacity="0" result="BackgroundImageFix"/>
<feBlend mode="normal" in="SourceGraphic" in2="BackgroundImageFix" result="shape"/>
<feColorMatrix in="SourceAlpha" type="matrix" values="0 0 0 0 0 0 0 0 0 0 0 0 0 0 0 0 0 0 127 0" result="hardAlpha"/>
<feMorphology radius="1" operator="erode" in="SourceAlpha" result="effect1_innerShadow_9403_66603"/>
<feOffset/>
<feComposite in2="hardAlpha" operator="arithmetic" k2="-1" k3="1"/>
<feColorMatrix type="matrix" values="0 0 0 0 1 0 0 0 0 1 0 0 0 0 1 0 0 0 0.1 0"/>
<feBlend mode="normal" in2="shape" result="effect1_innerShadow_9403_66603"/>
</filter>
<filter id="filter12_i_9403_66603" x="161" y="200" width="1105" height="503" filterUnits="userSpaceOnUse" color-interpolation-filters="sRGB">
<feFlood flood-opacity="0" result="BackgroundImageFix"/>
<feBlend mode="normal" in="SourceGraphic" in2="BackgroundImageFix" result="shape"/>
<feColorMatrix in="SourceAlpha" type="matrix" values="0 0 0 0 0 0 0 0 0 0 0 0 0 0 0 0 0 0 127 0" result="hardAlpha"/>
<feOffset/>
<feGaussianBlur stdDeviation="0.5"/>
<feComposite in2="hardAlpha" operator="arithmetic" k2="-1" k3="1"/>
<feColorMatrix type="matrix" values="0 0 0 0 0.0360577 0 0 0 0 0.124864 0 0 0 0 0.25 0 0 0 0.2 0"/>
<feBlend mode="normal" in2="shape" result="effect1_innerShadow_9403_66603"/>
</filter>
<radialGradient id="paint0_radial_9403_66603" cx="0" cy="0" r="1" gradientTransform="matrix(510.008 317.714 -325.247 2231.69 187.419 236.885)" gradientUnits="userSpaceOnUse">
<stop stop-color="#0076FF"/>
<stop offset="1" stop-color="#7FDEFF"/>
</radialGradient>
<clipPath id="clip0_9403_66603">
<rect width="1440" height="790" fill="white" transform="matrix(-1 0 0 1 1440 0)"/>
</clipPath>
</defs>
</svg>
